HIERARCHY
ROOT hips
{
  OFFSET 0 10.6860622 2.3727825e-15
  CHANNELS 6 Xposition Yposition Zposition Yrotation Xrotation Zrotation
  JOINT leftUpperLeg
  {
    OFFSET 0.6642549969 -0.9402397400000004 0
    CHANNELS 3 Yrotation Xrotation Zrotation
    JOINT leftLowerLeg
    {
      OFFSET 0 -3.997221335632195 0
      CHANNELS 3 Yrotation Xrotation Zrotation
      JOINT leftFoot
      {
        OFFSET -0.13777839790000004 -4.6145792000000005 -0.22186036399999998
        CHANNELS 3 Yrotation Xrotation Zrotation
        JOINT leftToes
        {
          OFFSET -0.03777410834999995 -0.9130806927000008 0.85230013
          CHANNELS 3 Yrotation Xrotation Zrotation
          End Site
          {
            OFFSET -0.03777410834999995 -0.9130806927000008 0.85230013
          }
        }
      }
    }
  }
  JOINT rightUpperLeg
  {
    OFFSET -0.6642778626 -0.9402397400000004 0
    CHANNELS 3 Yrotation Xrotation Zrotation
    JOINT rightLowerLeg
    {
      OFFSET 0 -3.997221452859387 0
      CHANNELS 3 Yrotation Xrotation Zrotation
      JOINT rightFoot
      {
        OFFSET 0.1377926176 -4.6145792000000005 -0.22185782299999995
        CHANNELS 3 Yrotation Xrotation Zrotation
        JOINT rightToes
        {
          OFFSET 0.037780746850000047 -0.9130806927000008 0.85230167
          CHANNELS 3 Yrotation Xrotation Zrotation
          End Site
          {
            OFFSET 0.037780746850000047 -0.9130806927000008 0.85230167
          }
        }
      }
    }
  }
  JOINT spine
  {
    OFFSET 0 0.13988381660000015 0
    CHANNELS 3 Yrotation Xrotation Zrotation
    JOINT chest
    {
      OFFSET 0 0.6191039003973773 0
      CHANNELS 3 Yrotation Xrotation Zrotation
      JOINT upperChest
      {
        OFFSET 0 0.9855186130586943 0
        CHANNELS 3 Yrotation Xrotation Zrotation
        JOINT leftShoulder
        {
          OFFSET 0.1807663869 1.5087829790000005 0
          CHANNELS 3 Yrotation Xrotation Zrotation
          JOINT leftUpperArm
          {
            OFFSET 0.5985063006419806 0 0
            CHANNELS 3 Yrotation Xrotation Zrotation
            JOINT leftLowerArm
            {
              OFFSET 2.2993332369501065 0 0
              CHANNELS 3 Yrotation Xrotation Zrotation
              JOINT leftHand
              {
                OFFSET 2.395047042602395 0 0
                CHANNELS 3 Yrotation Xrotation Zrotation
                JOINT leftIndexProximal
                {
                  OFFSET 0.5766295810000004 0.04556643899499946 0.17265095988184
                  CHANNELS 3 Yrotation Xrotation Zrotation
                  JOINT leftIndexIntermediate
                  {
                    OFFSET 0.2957229000000008 -0.019352197700001517 -0.007932640616999987
                    CHANNELS 3 Yrotation Xrotation Zrotation
                    JOINT leftIndexDistal
                    {
                      OFFSET 0.19008243099999922 -0.012484908149998475 -0.002786250786000012
                      CHANNELS 3 Yrotation Xrotation Zrotation
                      End Site
                      {
                        OFFSET 0.19008243099999922 -0.012484908149998475 -0.002786250786000012
                      }
                    }
                  }
                }
                JOINT leftMiddleProximal
                {
                  OFFSET 0.5834975091000001 0.0524350405149987 0.02204081888183999
                  CHANNELS 3 Yrotation Xrotation Zrotation
                  JOINT leftMiddleIntermediate
                  {
                    OFFSET 0.33880573540000003 -0.019871473270000717 -0.00000971183179999946
                    CHANNELS 3 Yrotation Xrotation Zrotation
                    JOINT leftMiddleDistal
                    {
                      OFFSET 0.20676022730000088 -0.012221336379999448 0.0001471936708000235
                      CHANNELS 3 Yrotation Xrotation Zrotation
                      End Site
                      {
                        OFFSET 0.20676022730000088 -0.012221336379999448 0.0001471936708000235
                      }
                    }
                  }
                }
                JOINT leftLittleProximal
                {
                  OFFSET 0.5344154683999995 -0.012880921405001189 -0.24414037221816004
                  CHANNELS 3 Yrotation Xrotation Zrotation
                  JOINT leftLittleIntermediate
                  {
                    OFFSET 0.21758961730000093 -0.011650919939999227 0.011893592810000034
                    CHANNELS 3 Yrotation Xrotation Zrotation
                    JOINT leftLittleDistal
                    {
                      OFFSET 0.1475273964999999 -0.008152365682999818 0.006001092492999946
                      CHANNELS 3 Yrotation Xrotation Zrotation
                      End Site
                      {
                        OFFSET 0.1475273964999999 -0.008152365682999818 0.006001092492999946
                      }
                    }
                  }
                }
                JOINT leftRingProximal
                {
                  OFFSET 0.5799399463000003 0.026911854694997794 -0.12150566991816003
                  CHANNELS 3 Yrotation Xrotation Zrotation
                  JOINT leftRingIntermediate
                  {
                    OFFSET 0.26167887460000006 -0.013480186499999602 0.010996293000000053
                    CHANNELS 3 Yrotation Xrotation Zrotation
                    JOINT leftRingDistal
                    {
                      OFFSET 0.17667108799999987 -0.008990287899999228 0.0055541023999999065
                      CHANNELS 3 Yrotation Xrotation Zrotation
                      End Site
                      {
                        OFFSET 0.17667108799999987 -0.008990287899999228 0.0055541023999999065
                      }
                    }
                  }
                }
                JOINT leftThumbProximal
                {
                  OFFSET 0.11018806699999972 -0.09448718900500053 0.17047963138184
                  CHANNELS 3 Yrotation Xrotation Zrotation
                  JOINT leftThumbIntermediate
                  {
                    OFFSET 0.31062601459999983 -0.08126270900000132 0.15443142000000007
                    CHANNELS 3 Yrotation Xrotation Zrotation
                    JOINT leftThumbDistal
                    {
                      OFFSET 0.21627175790000086 -0.08833193599999878 0.018771167799999988
                      CHANNELS 3 Yrotation Xrotation Zrotation
                      End Site
                      {
                        OFFSET 0.21627175790000086 -0.08833193599999878 0.018771167799999988
                      }
                    }
                  }
                }
              }
            }
          }
        }
        JOINT neck
        {
          OFFSET 0 1.5463305265074576 0
          CHANNELS 3 Yrotation Xrotation Zrotation
          JOINT head
          {
            OFFSET 0 0.8456443600000344 0
            CHANNELS 3 Yrotation Xrotation Zrotation
            JOINT leftEye
            {
              OFFSET 0.30408573140000006 0.5104519199999995 0.1276382305
              CHANNELS 3 Yrotation Xrotation Zrotation
              End Site
              {
                OFFSET 0.30408573140000006 0.5104519199999995 0.1276382305
              }
            }
            JOINT rightEye
            {
              OFFSET -0.30409491089999996 0.5104519199999995 0.1276379445
              CHANNELS 3 Yrotation Xrotation Zrotation
              End Site
              {
                OFFSET -0.30409491089999996 0.5104519199999995 0.1276379445
              }
            }
            JOINT jaw
            {
              OFFSET -3.155239131000001e-7 -0.11984121820000082 0.60178107
              CHANNELS 3 Yrotation Xrotation Zrotation
              End Site
              {
                OFFSET -3.155239131000001e-7 -0.11984121820000082 0.60178107
              }
            }
          }
        }
        JOINT rightShoulder
        {
          OFFSET -0.1807303465 1.5087829790000005 0
          CHANNELS 3 Yrotation Xrotation Zrotation
          JOINT rightUpperArm
          {
            OFFSET -0.5985063796536958 0 0
            CHANNELS 3 Yrotation Xrotation Zrotation
            JOINT rightLowerArm
            {
              OFFSET -2.2993322059002854 0 0
              CHANNELS 3 Yrotation Xrotation Zrotation
              JOINT rightHand
              {
                OFFSET -2.395045314457259 0 0
                CHANNELS 3 Yrotation Xrotation Zrotation
                JOINT rightIndexProximal
                {
                  OFFSET -0.5764487688300002 0.0441371204405987 0.17361932004999997
                  CHANNELS 3 Yrotation Xrotation Zrotation
                  JOINT rightIndexIntermediate
                  {
                    OFFSET -0.29573011380000047 -0.01934826376999843 -0.007698921482999974
                    CHANNELS 3 Yrotation Xrotation Zrotation
                    JOINT rightIndexDistal
                    {
                      OFFSET -0.19008373999999884 -0.012503266380000655 -0.0026365778999999897
                      CHANNELS 3 Yrotation Xrotation Zrotation
                      End Site
                      {
                        OFFSET -0.19008373999999884 -0.012503266380000655 -0.0026365778999999897
                      }
                    }
                  }
                }
                JOINT rightMiddleProximal
                {
                  OFFSET -0.5834852037300005 0.05211639405060153 0.02307162440000001
                  CHANNELS 3 Yrotation Xrotation Zrotation
                  JOINT rightMiddleIntermediate
                  {
                    OFFSET -0.33880114510000003 -0.019952774050000954 0.0002455003561999819
                    CHANNELS 3 Yrotation Xrotation Zrotation
                    JOINT rightMiddleDistal
                    {
                      OFFSET -0.20675694929999955 -0.012273788999999091 0.00030209124000002766
                      CHANNELS 3 Yrotation Xrotation Zrotation
                      End Site
                      {
                        OFFSET -0.20675694929999955 -0.012273788999999091 0.00030209124000002766
                      }
                    }
                  }
                }
                JOINT rightLittleProximal
                {
                  OFFSET -0.5346811737299992 -0.011214256288399227 -0.24363941305000003
                  CHANNELS 3 Yrotation Xrotation Zrotation
                  JOINT rightLittleIntermediate
                  {
                    OFFSET -0.21757715980000092 -0.011771559690000988 0.01201554387
                    CHANNELS 3 Yrotation Xrotation Zrotation
                    JOINT rightLittleDistal
                    {
                      OFFSET -0.1475201849000004 -0.00822055339600003 0.006082065407000015
                      CHANNELS 3 Yrotation Xrotation Zrotation
                      End Site
                      {
                        OFFSET -0.1475201849000004 -0.00822055339600003 0.006082065407000015
                      }
                    }
                  }
                }
                JOINT rightRingProximal
                {
                  OFFSET -0.5800810755299999 0.027657985680600072 -0.12066365025000003
                  CHANNELS 3 Yrotation Xrotation Zrotation
                  JOINT rightRingIntermediate
                  {
                    OFFSET -0.26166445029999974 -0.013623118409999302 0.011164098990000045
                    CHANNELS 3 Yrotation Xrotation Zrotation
                    JOINT rightRingDistal
                    {
                      OFFSET -0.17666387530000027 -0.009072900100000503 0.005668185599999959
                      CHANNELS 3 Yrotation Xrotation Zrotation
                      End Site
                      {
                        OFFSET -0.17666387530000027 -0.009072900100000503 0.005668185599999959
                      }
                    }
                  }
                }
                JOINT rightThumbProximal
                {
                  OFFSET -0.10997596379000074 -0.09577489355940072 0.16989765924999997
                  CHANNELS 3 Yrotation Xrotation Zrotation
                  JOINT rightThumbIntermediate
                  {
                    OFFSET -0.31036620999999986 -0.08229339117999834 0.15440884469999996
                    CHANNELS 3 Yrotation Xrotation Zrotation
                    JOINT rightThumbDistal
                    {
                      OFFSET -0.21631306399999906 -0.08825326400000111 0.018656797720000014
                      CHANNELS 3 Yrotation Xrotation Zrotation
                      End Site
                      {
                        OFFSET -0.21631306399999906 -0.08825326400000111 0.018656797720000014
                      }
                    }
                  }
                }
              }
            }
          }
        }
      }
    }
  }
}
MOTION
Frames: 5
Frame Time: 0.03333333333333333
0 11.682712981546562 0 0 0 0 0 0 -5.826343164929014 -0.3712483961610101 -3.6333298826370974 5.838118207697276 0 0 0 0 0 0 0 0 5.826343164929014 0.3712483961610101 -3.6333298826370974 -5.838118207697276 0 0 0 0 0 0 0 -4.610651315171937 0 0 3.0831277533083026 0 0 0 0 0 1.5275236235667615 0 0 0 0 0 0 0 0 0 0 0 0 0 0 0 0 0 0 0 0 0 0 0 0 0 0 0 0 0 0 0 0 0 0 0 0 0 0 0 0 0 0 0 0 0 0 0 0 0 0 0 0 0 0 0 0 1.5275236235667615 0 0 0 0 0 0 0 0 0 0 0 0 0 0 1.5275236235667615 0 0 0 0 0 0 0 0 0 0 0 0 0 0 0 0 0 0 0 0 0 0 0 0 0 0 0 0 0 0 0 0 0 0 0 0 0 0 0 0 0 0 0 0 0 0 0 0 0 0 0 0 0 0 0
-0.2716838341213745 -9.583064407975115 0 0 -72.00106536987305 0 14.666051647786212 -18.945725075967733 4.583212683281391 0.7144132639633732 6.517209376161326 3.886640863075053 2.3959397165843432 13.60013783127389 6.052984300663472 0 0 0 -0.043383294478057235 -45.89123608367898 -12.517288371850944 -19.049832216991426 72.72919173603911 -17.593824400841005 -1.6909878961164078 15.031633196389764 -5.46548318624903 0 0 0 -0.40885749170231545 36.69792493578535 -1.061607500494458 -0.6918860604459591 24.777889873988954 -3.371521273051425 0 0 0 -18.953076022833862 -2.131899597919032 -25.570471123587723 -17.385895281100346 -1.0770755184714798 -12.222628342227088 -57.006136806085905 -6.375663282590521 -4.387576248129083 0 0 -7.00032480930298 0 0 0 0 0 0 0 0 0 0 0 0 0 0 0 0 0 0 0 0 0 0 0 0 0 0 0 0 0 0 0 0 0 0 0 0 0 0 0 0 0 0 0 0 0 -0.07522987185349911 1.5607045656032252 -0.05972901432261628 -0.05072801381781802 0.05768648680512339 -0.03674508828252864 0 0 0 0 0 0 0 0 0 26.491021329401015 -4.853201593233202 16.296842883495504 26.211037996760606 -9.690361669381547 5.420425022323318 65.47185988694415 -5.975630607074323 5.025527244043928 -0.017368878147837795 -0.14083302626917182 6.996852239115665 0 0 0 0 0 0 0 0 0 0 0 0 0 0 0 0 0 0 0 0 0 0 0 0 0 0 0 0 0 0 0 0 0 0 0 0 0 0 0 0 0 0 0 0 0
-0.2716838341213745 -9.583064407975115 0 0 -72.00106536987305 0 14.666051647786212 -18.945725075967733 4.583212683281391 0.7144132639633732 6.517209376161326 3.886640863075053 2.3959397165843432 13.60013783127389 6.052984300663472 0 0 0 -0.043383294478057235 -45.89123608367898 -12.517288371850944 -19.049832216991426 72.72919173603911 -17.593824400841005 -1.6909878961164078 15.031633196389764 -5.46548318624903 0 0 0 -0.40885739187753256 36.69792493578535 -1.06160843205619 -0.6918860604459591 24.777889873988954 -3.371521273051425 0 0 0 -18.953076022833862 -2.131899597919032 -25.570471123587723 -17.491155950603552 -1.2013138125661336 -12.213832759246456 -57.006136806085905 -6.375663282590521 -4.3875771046983605 0 0 -7.00032480930298 0 0 0 0 0 0 0 0 0 0 0 0 0 0 0 0 0 0 0 0 0 0 0 0 0 0 0 0 0 0 0 0 0 0 0 0 0 0 0 0 0 0 0 0 0 -0.12797621070781814 1.5846246808487148 -0.19746246705036488 -0.05072801381781802 0.05768648680512339 -0.03674508828252864 0 0 0 0 0 0 0 0 0 26.491021329401015 -4.853201593233202 16.296842883495504 26.07470009998411 -9.907954816499073 5.695273915721247 65.47185988694415 -5.975630607074323 5.025527244043928 -0.017368878147837795 -0.14083302626917182 6.996852239115665 0 0 0 0 0 0 0 0 0 0 0 0 0 0 0 0 0 0 0 0 0 0 0 0 0 0 0 0 0 0 0 0 0 0 0 0 0 0 0 0 0 0 0 0 0
-0.2716838341213745 -9.583064407975115 0 0 -72.00106536987305 0 14.666051647786212 -18.945725075967733 4.583212683281391 0.7144132639633732 6.517209376161326 3.886640863075053 2.3959397165843432 13.600138709677598 6.052985174169887 0 0 0 -0.043383294478057235 -45.89123608367898 -12.517288371850944 -19.049832216991426 72.72919173603911 -17.593824400841005 -1.6909878961164078 15.031633196389764 -5.46548318624903 0 0 0 -0.40885749170231545 36.69792493578535 -1.061607500494458 -0.6918860604459591 24.777889873988954 -3.371521273051425 0 0 0 -18.953076022833862 -2.13189938432778 -25.570472664956313 -17.596481723451596 -1.3255842301818348 -12.204803960314143 -57.006136806085905 -6.375663282590521 -4.387576248129083 0 0 -7.00032480930298 0 0 0 0 0 0 0 0 0 0 0 0 0 0 0 0 0 0 0 0 0 0 0 0 0 0 0 0 0 0 0 0 0 0 0 0 0 0 0 0 0 0 0 0 0 -0.18079623437320297 1.6084251766394744 -0.3352563481376641 -0.05072801381781802 0.05768648680512339 -0.03674508828252864 0 0 0 0 0 0 0 0 0 26.491025925733172 -4.8532020216560365 16.296842883495504 25.937058133992583 -10.125145146464014 5.971142669710311 65.47185988694415 -5.975630607074323 5.025527244043928 -0.017368878147837795 -0.14083302626917182 6.996852239115665 0 0 0 0 0 0 0 0 0 0 0 0 0 0 0 0 0 0 0 0 0 0 0 0 0 0 0 0 0 0 0 0 0 0 0 0 0 0 0 0 0 0 0 0 0
-0.2716838341213745 -9.583064407975115 0 0 -72.00106536987305 0 14.666051647786212 -18.945725075967733 4.583212683281391 0.7144132639633732 6.517209376161326 3.886640863075053 2.3959397165843432 13.60013783127389 6.052984300663472 0 0 0 -0.043383294478057235 -45.89123608367898 -12.517288371850944 -19.049839725901624 72.72919173603911 -17.593831354773947 -1.6909878961164078 15.031633196389764 -5.46548318624903 0 0 0 -0.40885739187753256 36.69792493578535 -1.06160843205619 -0.6918860604459591 24.777889873988954 -3.371521273051425 0 0 0 -18.953079255015947 -2.131899597919032 -25.570472664956313 -17.70188156431862 -1.449889068666715 -12.195545010526272 -57.006136806085905 -6.375663282590521 -4.3875771046983605 0 0 -7.00032480930298 0 0 0 0 0 0 0 0 0 0 0 0 0 0 0 0 0 0 0 0 0 0 0 0 0 0 0 0 0 0 0 0 0 0 0 0 0 0 0 0 0 0 0 0 0 -0.2336870702565722 1.6321043446874246 -0.47311170934402913 -0.05072801381781802 0.05768648680512339 -0.03674508828252864 0 0 0 0 0 0 0 0 0 26.491021329401015 -4.853201593233202 16.29684452833202 25.798112541848436 -10.341918483839503 6.248034540857505 65.47185988694415 -5.975630607074323 5.025527244043928 -0.017368878147837795 -0.14083302626917182 6.996852239115665 0 0 0 0 0 0 0 0 0 0 0 0 0 0 0 0 0 0 0 0 0 0 0 0 0 0 0 0 0 0 0 0 0 0 0 0 0 0 0 0 0 0 0 0 0
